<svg xmlns="http://www.w3.org/2000/svg" width="900" height="240" viewBox="0 0 900 240"><rect width="100%" height="100%" rx="14" fill="#17110f"/><text x="28" y="34" fill="#f3d6bc" font-family="Arial" font-size="16" font-weight="700">ENGINEERING ACHIEVEMENTS</text><rect x="28" y="72" width="265" height="58" rx="9" fill="#2b211d" stroke="#4b352c"/><text x="44" y="93" fill="#b9a196" font-family="Arial" font-size="10">TOTAL CONTRIBUTIONS</text><text x="44" y="118" fill="#e8b67c" font-family="Arial" font-size="20" font-weight="700">445</text><rect x="320" y="72" width="265" height="58" rx="9" fill="#2b211d" stroke="#4b352c"/><text x="336" y="93" fill="#b9a196" font-family="Arial" font-size="10">COMMITS</text><text x="336" y="118" fill="#e8b67c" font-family="Arial" font-size="20" font-weight="700">199</text><rect x="612" y="72" width="265" height="58" rx="9" fill="#2b211d" stroke="#4b352c"/><text x="628" y="93" fill="#b9a196" font-family="Arial" font-size="10">PULL REQUESTS</text><text x="628" y="118" fill="#e8b67c" font-family="Arial" font-size="20" font-weight="700">5</text><rect x="28" y="148" width="265" height="58" rx="9" fill="#2b211d" stroke="#4b352c"/><text x="44" y="169" fill="#b9a196" font-family="Arial" font-size="10">ISSUES</text><text x="44" y="194" fill="#e8b67c" font-family="Arial" font-size="20" font-weight="700">0</text><rect x="320" y="148" width="265" height="58" rx="9" fill="#2b211d" stroke="#4b352c"/><text x="336" y="169" fill="#b9a196" font-family="Arial" font-size="10">REPOSITORIES</text><text x="336" y="194" fill="#e8b67c" font-family="Arial" font-size="20" font-weight="700">14</text><rect x="612" y="148" width="265" height="58" rx="9" fill="#2b211d" stroke="#4b352c"/><text x="628" y="169" fill="#b9a196" font-family="Arial" font-size="10">PUBLIC PROJECTS</text><text x="628" y="194" fill="#e8b67c" font-family="Arial" font-size="20" font-weight="700">13</text></svg>