<svg xmlns="http://www.w3.org/2000/svg" width="900" height="180" viewBox="0 0 900 180"><rect width="100%" height="100%" rx="14" fill="#17110f"/><text x="28" y="34" fill="#f3d6bc" font-family="Arial" font-size="16" font-weight="700">CONTRIBUTION MATRIX</text><rect x="28" y="62" width="10" height="10" rx="2" fill="#2b211d"/><rect x="28" y="75" width="10" height="10" rx="2" fill="#2b211d"/><rect x="28" y="88" width="10" height="10" rx="2" fill="#2b211d"/><rect x="28" y="101" width="10" height="10" rx="2" fill="#2b211d"/><rect x="28" y="114" width="10" height="10" rx="2" fill="#2b211d"/><rect x="28" y="127" width="10" height="10" rx="2" fill="#2b211d"/><rect x="28" y="140" width="10" height="10" rx="2" fill="#2b211d"/><rect x="41" y="62" width="10" height="10" rx="2" fill="#2b211d"/><rect x="41" y="75" width="10" height="10" rx="2" fill="#2b211d"/><rect x="41" y="88" width="10" height="10" rx="2" fill="#2b211d"/><rect x="41" y="101" width="10" height="10" rx="2" fill="#2b211d"/><rect x="41" y="114" width="10" height="10" rx="2" fill="#2b211d"/><rect x="41" y="127" width="10" height="10" rx="2" fill="#2b211d"/><rect x="41" y="140" width="10" height="10" rx="2" fill="#2b211d"/><rect x="54" y="62" width="10" height="10" rx="2" fill="#2b211d"/><rect x="54" y="75" width="10" height="10" rx="2" fill="#2b211d"/><rect x="54" y="88" width="10" height="10" rx="2" fill="#2b211d"/><rect x="54" y="101" width="10" height="10" rx="2" fill="#2b211d"/><rect x="54" y="114" width="10" height="10" rx="2" fill="#2b211d"/><rect x="54" y="127" width="10" height="10" rx="2" fill="#2b211d"/><rect x="54" y="140" width="10" height="10" rx="2" fill="#2b211d"/><rect x="67" y="62" width="10" height="10" rx="2" fill="#2b211d"/><rect x="67" y="75" width="10" height="10" rx="2" fill="#2b211d"/><rect x="67" y="88" width="10" height="10" rx="2" fill="#2b211d"/><rect x="67" y="101" width="10" height="10" rx="2" fill="#2b211d"/><rect x="67" y="114" width="10" height="10" rx="2" fill="#2b211d"/><rect x="67" y="127" width="10" height="10" rx="2" fill="#2b211d"/><rect x="67" y="140" width="10" height="10" rx="2" fill="#2b211d"/><rect x="80" y="62" width="10" height="10" rx="2" fill="#2b211d"/><rect x="80" y="75" width="10" height="10" rx="2" fill="#2b211d"/><rect x="80" y="88" width="10" height="10" rx="2" fill="#2b211d"/><rect x="80" y="101" width="10" height="10" rx="2" fill="#2b211d"/><rect x="80" y="114" width="10" height="10" rx="2" fill="#2b211d"/><rect x="80" y="127" width="10" height="10" rx="2" fill="#2b211d"/><rect x="80" y="140" width="10" height="10" rx="2" fill="#2b211d"/><rect x="93" y="62" width="10" height="10" rx="2" fill="#2b211d"/><rect x="93" y="75" width="10" height="10" rx="2" fill="#2b211d"/><rect x="93" y="88" width="10" height="10" rx="2" fill="#2b211d"/><rect x="93" y="101" width="10" height="10" rx="2" fill="#2b211d"/><rect x="93" y="114" width="10" height="10" rx="2" fill="#2b211d"/><rect x="93" y="127" width="10" height="10" rx="2" fill="#2b211d"/><rect x="93" y="140" width="10" height="10" rx="2" fill="#2b211d"/><rect x="106" y="62" width="10" height="10" rx="2" fill="#2b211d"/><rect x="106" y="75" width="10" height="10" rx="2" fill="#2b211d"/><rect x="106" y="88" width="10" height="10" rx="2" fill="#2b211d"/><rect x="106" y="101" width="10" height="10" rx="2" fill="#2b211d"/><rect x="106" y="114" width="10" height="10" rx="2" fill="#2b211d"/><rect x="106" y="127" width="10" height="10" rx="2" fill="#2b211d"/><rect x="106" y="140" width="10" height="10" rx="2" fill="#2b211d"/><rect x="119" y="62" width="10" height="10" rx="2" fill="#2b211d"/><rect x="119" y="75" width="10" height="10" rx="2" fill="#2b211d"/><rect x="119" y="88" width="10" height="10" rx="2" fill="#2b211d"/><rect x="119" y="101" width="10" height="10" rx="2" fill="#2b211d"/><rect x="119" y="114" width="10" height="10" rx="2" fill="#2b211d"/><rect x="119" y="127" width="10" height="10" rx="2" fill="#2b211d"/><rect x="119" y="140" width="10" height="10" rx="2" fill="#2b211d"/><rect x="132" y="62" width="10" height="10" rx="2" fill="#2b211d"/><rect x="132" y="75" width="10" height="10" rx="2" fill="#2b211d"/><rect x="132" y="88" width="10" height="10" rx="2" fill="#2b211d"/><rect x="132" y="101" width="10" height="10" rx="2" fill="#2b211d"/><rect x="132" y="114" width="10" height="10" rx="2" fill="#2b211d"/><rect x="132" y="127" width="10" height="10" rx="2" fill="#2b211d"/><rect x="132" y="140" width="10" height="10" rx="2" fill="#2b211d"/><rect x="145" y="62" width="10" height="10" rx="2" fill="#2b211d"/><rect x="145" y="75" width="10" height="10" rx="2" fill="#2b211d"/><rect x="145" y="88" width="10" height="10" rx="2" fill="#2b211d"/><rect x="145" y="101" width="10" height="10" rx="2" fill="#2b211d"/><rect x="145" y="114" width="10" height="10" rx="2" fill="#2b211d"/><rect x="145" y="127" width="10" height="10" rx="2" fill="#2b211d"/><rect x="145" y="140" width="10" height="10" rx="2" fill="#2b211d"/><rect x="158" y="62" width="10" height="10" rx="2" fill="#2b211d"/><rect x="158" y="75" width="10" height="10" rx="2" fill="#2b211d"/><rect x="158" y="88" width="10" height="10" rx="2" fill="#2b211d"/><rect x="158" y="101" width="10" height="10" rx="2" fill="#2b211d"/><rect x="158" y="114" width="10" height="10" rx="2" fill="#2b211d"/><rect x="158" y="127" width="10" height="10" rx="2" fill="#2b211d"/><rect x="158" y="140" width="10" height="10" rx="2" fill="#2b211d"/><rect x="171" y="62" width="10" height="10" rx="2" fill="#2b211d"/><rect x="171" y="75" width="10" height="10" rx="2" fill="#2b211d"/><rect x="171" y="88" width="10" height="10" rx="2" fill="#2b211d"/><rect x="171" y="101" width="10" height="10" rx="2" fill="#2b211d"/><rect x="171" y="114" width="10" height="10" rx="2" fill="#2b211d"/><rect x="171" y="127" width="10" height="10" rx="2" fill="#2b211d"/><rect x="171" y="140" width="10" height="10" rx="2" fill="#2b211d"/><rect x="184" y="62" width="10" height="10" rx="2" fill="#2b211d"/><rect x="184" y="75" width="10" height="10" rx="2" fill="#2b211d"/><rect x="184" y="88" width="10" height="10" rx="2" fill="#2b211d"/><rect x="184" y="101" width="10" height="10" rx="2" fill="#2b211d"/><rect x="184" y="114" width="10" height="10" rx="2" fill="#2b211d"/><rect x="184" y="127" width="10" height="10" rx="2" fill="#2b211d"/><rect x="184" y="140" width="10" height="10" rx="2" fill="#2b211d"/><rect x="197" y="62" width="10" height="10" rx="2" fill="#2b211d"/><rect x="197" y="75" width="10" height="10" rx="2" fill="#2b211d"/><rect x="197" y="88" width="10" height="10" rx="2" fill="#2b211d"/><rect x="197" y="101" width="10" height="10" rx="2" fill="#2b211d"/><rect x="197" y="114" width="10" height="10" rx="2" fill="#2b211d"/><rect x="197" y="127" width="10" height="10" rx="2" fill="#2b211d"/><rect x="197" y="140" width="10" height="10" rx="2" fill="#2b211d"/><rect x="210" y="62" width="10" height="10" rx="2" fill="#2b211d"/><rect x="210" y="75" width="10" height="10" rx="2" fill="#2b211d"/><rect x="210" y="88" width="10" height="10" rx="2" fill="#2b211d"/><rect x="210" y="101" width="10" height="10" rx="2" fill="#2b211d"/><rect x="210" y="114" width="10" height="10" rx="2" fill="#2b211d"/><rect x="210" y="127" width="10" height="10" rx="2" fill="#2b211d"/><rect x="210" y="140" width="10" height="10" rx="2" fill="#2b211d"/><rect x="223" y="62" width="10" height="10" rx="2" fill="#2b211d"/><rect x="223" y="75" width="10" height="10" rx="2" fill="#2b211d"/><rect x="223" y="88" width="10" height="10" rx="2" fill="#2b211d"/><rect x="223" y="101" width="10" height="10" rx="2" fill="#2b211d"/><rect x="223" y="114" width="10" height="10" rx="2" fill="#2b211d"/><rect x="223" y="127" width="10" height="10" rx="2" fill="#2b211d"/><rect x="223" y="140" width="10" height="10" rx="2" fill="#2b211d"/><rect x="236" y="62" width="10" height="10" rx="2" fill="#2b211d"/><rect x="236" y="75" width="10" height="10" rx="2" fill="#2b211d"/><rect x="236" y="88" width="10" height="10" rx="2" fill="#2b211d"/><rect x="236" y="101" width="10" height="10" rx="2" fill="#2b211d"/><rect x="236" y="114" width="10" height="10" rx="2" fill="#2b211d"/><rect x="236" y="127" width="10" height="10" rx="2" fill="#2b211d"/><rect x="236" y="140" width="10" height="10" rx="2" fill="#2b211d"/><rect x="249" y="62" width="10" height="10" rx="2" fill="#2b211d"/><rect x="249" y="75" width="10" height="10" rx="2" fill="#2b211d"/><rect x="249" y="88" width="10" height="10" rx="2" fill="#2b211d"/><rect x="249" y="101" width="10" height="10" rx="2" fill="#2b211d"/><rect x="249" y="114" width="10" height="10" rx="2" fill="#2b211d"/><rect x="249" y="127" width="10" height="10" rx="2" fill="#2b211d"/><rect x="249" y="140" width="10" height="10" rx="2" fill="#2b211d"/><rect x="262" y="62" width="10" height="10" rx="2" fill="#2b211d"/><rect x="262" y="75" width="10" height="10" rx="2" fill="#2b211d"/><rect x="262" y="88" width="10" height="10" rx="2" fill="#2b211d"/><rect x="262" y="101" width="10" height="10" rx="2" fill="#2b211d"/><rect x="262" y="114" width="10" height="10" rx="2" fill="#2b211d"/><rect x="262" y="127" width="10" height="10" rx="2" fill="#2b211d"/><rect x="262" y="140" width="10" height="10" rx="2" fill="#2b211d"/><rect x="275" y="62" width="10" height="10" rx="2" fill="#2b211d"/><rect x="275" y="75" width="10" height="10" rx="2" fill="#2b211d"/><rect x="275" y="88" width="10" height="10" rx="2" fill="#2b211d"/><rect x="275" y="101" width="10" height="10" rx="2" fill="#2b211d"/><rect x="275" y="114" width="10" height="10" rx="2" fill="#2b211d"/><rect x="275" y="127" width="10" height="10" rx="2" fill="#2b211d"/><rect x="275" y="140" width="10" height="10" rx="2" fill="#2b211d"/><rect x="288" y="62" width="10" height="10" rx="2" fill="#2b211d"/><rect x="288" y="75" width="10" height="10" rx="2" fill="#2b211d"/><rect x="288" y="88" width="10" height="10" rx="2" fill="#2b211d"/><rect x="288" y="101" width="10" height="10" rx="2" fill="#2b211d"/><rect x="288" y="114" width="10" height="10" rx="2" fill="#2b211d"/><rect x="288" y="127" width="10" height="10" rx="2" fill="#2b211d"/><rect x="288" y="140" width="10" height="10" rx="2" fill="#2b211d"/><rect x="301" y="62" width="10" height="10" rx="2" fill="#2b211d"/><rect x="301" y="75" width="10" height="10" rx="2" fill="#2b211d"/><rect x="301" y="88" width="10" height="10" rx="2" fill="#2b211d"/><rect x="301" y="101" width="10" height="10" rx="2" fill="#2b211d"/><rect x="301" y="114" width="10" height="10" rx="2" fill="#2b211d"/><rect x="301" y="127" width="10" height="10" rx="2" fill="#2b211d"/><rect x="301" y="140" width="10" height="10" rx="2" fill="#2b211d"/><rect x="314" y="62" width="10" height="10" rx="2" fill="#2b211d"/><rect x="314" y="75" width="10" height="10" rx="2" fill="#2b211d"/><rect x="314" y="88" width="10" height="10" rx="2" fill="#2b211d"/><rect x="314" y="101" width="10" height="10" rx="2" fill="#2b211d"/><rect x="314" y="114" width="10" height="10" rx="2" fill="#2b211d"/><rect x="314" y="127" width="10" height="10" rx="2" fill="#2b211d"/><rect x="314" y="140" width="10" height="10" rx="2" fill="#2b211d"/><rect x="327" y="62" width="10" height="10" rx="2" fill="#2b211d"/><rect x="327" y="75" width="10" height="10" rx="2" fill="#2b211d"/><rect x="327" y="88" width="10" height="10" rx="2" fill="#2b211d"/><rect x="327" y="101" width="10" height="10" rx="2" fill="#2b211d"/><rect x="327" y="114" width="10" height="10" rx="2" fill="#2b211d"/><rect x="327" y="127" width="10" height="10" rx="2" fill="#2b211d"/><rect x="327" y="140" width="10" height="10" rx="2" fill="#2b211d"/><rect x="340" y="62" width="10" height="10" rx="2" fill="#2b211d"/><rect x="340" y="75" width="10" height="10" rx="2" fill="#2b211d"/><rect x="340" y="88" width="10" height="10" rx="2" fill="#2b211d"/><rect x="340" y="101" width="10" height="10" rx="2" fill="#2b211d"/><rect x="340" y="114" width="10" height="10" rx="2" fill="#2b211d"/><rect x="340" y="127" width="10" height="10" rx="2" fill="#2b211d"/><rect x="340" y="140" width="10" height="10" rx="2" fill="#2b211d"/><rect x="353" y="62" width="10" height="10" rx="2" fill="#2b211d"/><rect x="353" y="75" width="10" height="10" rx="2" fill="#2b211d"/><rect x="353" y="88" width="10" height="10" rx="2" fill="#2b211d"/><rect x="353" y="101" width="10" height="10" rx="2" fill="#2b211d"/><rect x="353" y="114" width="10" height="10" rx="2" fill="#2b211d"/><rect x="353" y="127" width="10" height="10" rx="2" fill="#2b211d"/><rect x="353" y="140" width="10" height="10" rx="2" fill="#2b211d"/><rect x="366" y="62" width="10" height="10" rx="2" fill="#2b211d"/><rect x="366" y="75" width="10" height="10" rx="2" fill="#2b211d"/><rect x="366" y="88" width="10" height="10" rx="2" fill="#2b211d"/><rect x="366" y="101" width="10" height="10" rx="2" fill="#2b211d"/><rect x="366" y="114" width="10" height="10" rx="2" fill="#2b211d"/><rect x="366" y="127" width="10" height="10" rx="2" fill="#2b211d"/><rect x="366" y="140" width="10" height="10" rx="2" fill="#2b211d"/><rect x="379" y="62" width="10" height="10" rx="2" fill="#2b211d"/><rect x="379" y="75" width="10" height="10" rx="2" fill="#2b211d"/><rect x="379" y="88" width="10" height="10" rx="2" fill="#2b211d"/><rect x="379" y="101" width="10" height="10" rx="2" fill="#2b211d"/><rect x="379" y="114" width="10" height="10" rx="2" fill="#2b211d"/><rect x="379" y="127" width="10" height="10" rx="2" fill="#2b211d"/><rect x="379" y="140" width="10" height="10" rx="2" fill="#2b211d"/><rect x="392" y="62" width="10" height="10" rx="2" fill="#2b211d"/><rect x="392" y="75" width="10" height="10" rx="2" fill="#2b211d"/><rect x="392" y="88" width="10" height="10" rx="2" fill="#2b211d"/><rect x="392" y="101" width="10" height="10" rx="2" fill="#2b211d"/><rect x="392" y="114" width="10" height="10" rx="2" fill="#2b211d"/><rect x="392" y="127" width="10" height="10" rx="2" fill="#2b211d"/><rect x="392" y="140" width="10" height="10" rx="2" fill="#2b211d"/><rect x="405" y="62" width="10" height="10" rx="2" fill="#2b211d"/><rect x="405" y="75" width="10" height="10" rx="2" fill="#2b211d"/><rect x="405" y="88" width="10" height="10" rx="2" fill="#2b211d"/><rect x="405" y="101" width="10" height="10" rx="2" fill="#2b211d"/><rect x="405" y="114" width="10" height="10" rx="2" fill="#2b211d"/><rect x="405" y="127" width="10" height="10" rx="2" fill="#2b211d"/><rect x="405" y="140" width="10" height="10" rx="2" fill="#2b211d"/><rect x="418" y="62" width="10" height="10" rx="2" fill="#2b211d"/><rect x="418" y="75" width="10" height="10" rx="2" fill="#2b211d"/><rect x="418" y="88" width="10" height="10" rx="2" fill="#2b211d"/><rect x="418" y="101" width="10" height="10" rx="2" fill="#2b211d"/><rect x="418" y="114" width="10" height="10" rx="2" fill="#2b211d"/><rect x="418" y="127" width="10" height="10" rx="2" fill="#2b211d"/><rect x="418" y="140" width="10" height="10" rx="2" fill="#2b211d"/><rect x="431" y="62" width="10" height="10" rx="2" fill="#2b211d"/><rect x="431" y="75" width="10" height="10" rx="2" fill="#2b211d"/><rect x="431" y="88" width="10" height="10" rx="2" fill="#2b211d"/><rect x="431" y="101" width="10" height="10" rx="2" fill="#2b211d"/><rect x="431" y="114" width="10" height="10" rx="2" fill="#2b211d"/><rect x="431" y="127" width="10" height="10" rx="2" fill="#2b211d"/><rect x="431" y="140" width="10" height="10" rx="2" fill="#2b211d"/><rect x="444" y="62" width="10" height="10" rx="2" fill="#2b211d"/><rect x="444" y="75" width="10" height="10" rx="2" fill="#2b211d"/><rect x="444" y="88" width="10" height="10" rx="2" fill="#2b211d"/><rect x="444" y="101" width="10" height="10" rx="2" fill="#2b211d"/><rect x="444" y="114" width="10" height="10" rx="2" fill="#2b211d"/><rect x="444" y="127" width="10" height="10" rx="2" fill="#2b211d"/><rect x="444" y="140" width="10" height="10" rx="2" fill="#2b211d"/><rect x="457" y="62" width="10" height="10" rx="2" fill="#2b211d"/><rect x="457" y="75" width="10" height="10" rx="2" fill="#2b211d"/><rect x="457" y="88" width="10" height="10" rx="2" fill="#2b211d"/><rect x="457" y="101" width="10" height="10" rx="2" fill="#2b211d"/><rect x="457" y="114" width="10" height="10" rx="2" fill="#2b211d"/><rect x="457" y="127" width="10" height="10" rx="2" fill="#2b211d"/><rect x="457" y="140" width="10" height="10" rx="2" fill="#2b211d"/><rect x="470" y="62" width="10" height="10" rx="2" fill="#2b211d"/><rect x="470" y="75" width="10" height="10" rx="2" fill="#2b211d"/><rect x="470" y="88" width="10" height="10" rx="2" fill="#2b211d"/><rect x="470" y="101" width="10" height="10" rx="2" fill="#2b211d"/><rect x="470" y="114" width="10" height="10" rx="2" fill="#2b211d"/><rect x="470" y="127" width="10" height="10" rx="2" fill="#2b211d"/><rect x="470" y="140" width="10" height="10" rx="2" fill="#2b211d"/><rect x="483" y="62" width="10" height="10" rx="2" fill="#2b211d"/><rect x="483" y="75" width="10" height="10" rx="2" fill="#2b211d"/><rect x="483" y="88" width="10" height="10" rx="2" fill="#2b211d"/><rect x="483" y="101" width="10" height="10" rx="2" fill="#2b211d"/><rect x="483" y="114" width="10" height="10" rx="2" fill="#2b211d"/><rect x="483" y="127" width="10" height="10" rx="2" fill="#2b211d"/><rect x="483" y="140" width="10" height="10" rx="2" fill="#2b211d"/><rect x="496" y="62" width="10" height="10" rx="2" fill="#2b211d"/><rect x="496" y="75" width="10" height="10" rx="2" fill="#2b211d"/><rect x="496" y="88" width="10" height="10" rx="2" fill="#2b211d"/><rect x="496" y="101" width="10" height="10" rx="2" fill="#2b211d"/><rect x="496" y="114" width="10" height="10" rx="2" fill="#2b211d"/><rect x="496" y="127" width="10" height="10" rx="2" fill="#2b211d"/><rect x="496" y="140" width="10" height="10" rx="2" fill="#2b211d"/><rect x="509" y="62" width="10" height="10" rx="2" fill="#2b211d"/><rect x="509" y="75" width="10" height="10" rx="2" fill="#2b211d"/><rect x="509" y="88" width="10" height="10" rx="2" fill="#2b211d"/><rect x="509" y="101" width="10" height="10" rx="2" fill="#2b211d"/><rect x="509" y="114" width="10" height="10" rx="2" fill="#2b211d"/><rect x="509" y="127" width="10" height="10" rx="2" fill="#2b211d"/><rect x="509" y="140" width="10" height="10" rx="2" fill="#2b211d"/><rect x="522" y="62" width="10" height="10" rx="2" fill="#2b211d"/><rect x="522" y="75" width="10" height="10" rx="2" fill="#2b211d"/><rect x="522" y="88" width="10" height="10" rx="2" fill="#2b211d"/><rect x="522" y="101" width="10" height="10" rx="2" fill="#2b211d"/><rect x="522" y="114" width="10" height="10" rx="2" fill="#2b211d"/><rect x="522" y="127" width="10" height="10" rx="2" fill="#2b211d"/><rect x="522" y="140" width="10" height="10" rx="2" fill="#2b211d"/><rect x="535" y="62" width="10" height="10" rx="2" fill="#2b211d"/><rect x="535" y="75" width="10" height="10" rx="2" fill="#2b211d"/><rect x="535" y="88" width="10" height="10" rx="2" fill="#2b211d"/><rect x="535" y="101" width="10" height="10" rx="2" fill="#2b211d"/><rect x="535" y="114" width="10" height="10" rx="2" fill="#2b211d"/><rect x="535" y="127" width="10" height="10" rx="2" fill="#2b211d"/><rect x="535" y="140" width="10" height="10" rx="2" fill="#2b211d"/><rect x="548" y="62" width="10" height="10" rx="2" fill="#2b211d"/><rect x="548" y="75" width="10" height="10" rx="2" fill="#2b211d"/><rect x="548" y="88" width="10" height="10" rx="2" fill="#2b211d"/><rect x="548" y="101" width="10" height="10" rx="2" fill="#2b211d"/><rect x="548" y="114" width="10" height="10" rx="2" fill="#2b211d"/><rect x="548" y="127" width="10" height="10" rx="2" fill="#2b211d"/><rect x="548" y="140" width="10" height="10" rx="2" fill="#2b211d"/><rect x="561" y="62" width="10" height="10" rx="2" fill="#2b211d"/><rect x="561" y="75" width="10" height="10" rx="2" fill="#2b211d"/><rect x="561" y="88" width="10" height="10" rx="2" fill="#2b211d"/><rect x="561" y="101" width="10" height="10" rx="2" fill="#2b211d"/><rect x="561" y="114" width="10" height="10" rx="2" fill="#2b211d"/><rect x="561" y="127" width="10" height="10" rx="2" fill="#2b211d"/><rect x="561" y="140" width="10" height="10" rx="2" fill="#2b211d"/><rect x="574" y="62" width="10" height="10" rx="2" fill="#2b211d"/><rect x="574" y="75" width="10" height="10" rx="2" fill="#8a4b38"/><rect x="574" y="88" width="10" height="10" rx="2" fill="#54342b"/><rect x="574" y="101" width="10" height="10" rx="2" fill="#c56b4a"/><rect x="574" y="114" width="10" height="10" rx="2" fill="#8a4b38"/><rect x="574" y="127" width="10" height="10" rx="2" fill="#c56b4a"/><rect x="574" y="140" width="10" height="10" rx="2" fill="#c56b4a"/><rect x="587" y="62" width="10" height="10" rx="2" fill="#2b211d"/><rect x="587" y="75" width="10" height="10" rx="2" fill="#2b211d"/><rect x="587" y="88" width="10" height="10" rx="2" fill="#2b211d"/><rect x="587" y="101" width="10" height="10" rx="2" fill="#2b211d"/><rect x="587" y="114" width="10" height="10" rx="2" fill="#8a4b38"/><rect x="587" y="127" width="10" height="10" rx="2" fill="#e8b67c"/><rect x="587" y="140" width="10" height="10" rx="2" fill="#8a4b38"/><rect x="600" y="62" width="10" height="10" rx="2" fill="#8a4b38"/><rect x="600" y="75" width="10" height="10" rx="2" fill="#2b211d"/><rect x="600" y="88" width="10" height="10" rx="2" fill="#2b211d"/><rect x="600" y="101" width="10" height="10" rx="2" fill="#2b211d"/><rect x="600" y="114" width="10" height="10" rx="2" fill="#54342b"/><rect x="600" y="127" width="10" height="10" rx="2" fill="#2b211d"/><rect x="600" y="140" width="10" height="10" rx="2" fill="#54342b"/><rect x="613" y="62" width="10" height="10" rx="2" fill="#8a4b38"/><rect x="613" y="75" width="10" height="10" rx="2" fill="#c56b4a"/><rect x="613" y="88" width="10" height="10" rx="2" fill="#2b211d"/><rect x="613" y="101" width="10" height="10" rx="2" fill="#54342b"/><rect x="613" y="114" width="10" height="10" rx="2" fill="#c56b4a"/><rect x="613" y="127" width="10" height="10" rx="2" fill="#54342b"/><rect x="613" y="140" width="10" height="10" rx="2" fill="#8a4b38"/><rect x="626" y="62" width="10" height="10" rx="2" fill="#2b211d"/><rect x="626" y="75" width="10" height="10" rx="2" fill="#2b211d"/><rect x="626" y="88" width="10" height="10" rx="2" fill="#2b211d"/><rect x="626" y="101" width="10" height="10" rx="2" fill="#2b211d"/><rect x="626" y="114" width="10" height="10" rx="2" fill="#2b211d"/><rect x="626" y="127" width="10" height="10" rx="2" fill="#2b211d"/><rect x="626" y="140" width="10" height="10" rx="2" fill="#54342b"/><rect x="639" y="62" width="10" height="10" rx="2" fill="#54342b"/><rect x="639" y="75" width="10" height="10" rx="2" fill="#2b211d"/><rect x="639" y="88" width="10" height="10" rx="2" fill="#2b211d"/><rect x="639" y="101" width="10" height="10" rx="2" fill="#8a4b38"/><rect x="639" y="114" width="10" height="10" rx="2" fill="#2b211d"/><rect x="639" y="127" width="10" height="10" rx="2" fill="#2b211d"/><rect x="639" y="140" width="10" height="10" rx="2" fill="#e8b67c"/><rect x="652" y="62" width="10" height="10" rx="2" fill="#2b211d"/><rect x="652" y="75" width="10" height="10" rx="2" fill="#2b211d"/><rect x="652" y="88" width="10" height="10" rx="2" fill="#2b211d"/><rect x="652" y="101" width="10" height="10" rx="2" fill="#2b211d"/><rect x="652" y="114" width="10" height="10" rx="2" fill="#2b211d"/><rect x="652" y="127" width="10" height="10" rx="2" fill="#2b211d"/><rect x="652" y="140" width="10" height="10" rx="2" fill="#8a4b38"/><rect x="665" y="62" width="10" height="10" rx="2" fill="#8a4b38"/><rect x="665" y="75" width="10" height="10" rx="2" fill="#e8b67c"/><rect x="665" y="88" width="10" height="10" rx="2" fill="#e8b67c"/><rect x="665" y="101" width="10" height="10" rx="2" fill="#e8b67c"/><rect x="665" y="114" width="10" height="10" rx="2" fill="#e8b67c"/><rect x="665" y="127" width="10" height="10" rx="2" fill="#e8b67c"/><rect x="665" y="140" width="10" height="10" rx="2" fill="#e8b67c"/><rect x="678" y="62" width="10" height="10" rx="2" fill="#e8b67c"/><rect x="678" y="75" width="10" height="10" rx="2" fill="#e8b67c"/><rect x="678" y="88" width="10" height="10" rx="2" fill="#e8b67c"/><rect x="678" y="101" width="10" height="10" rx="2" fill="#e8b67c"/><rect x="678" y="114" width="10" height="10" rx="2" fill="#e8b67c"/><rect x="678" y="127" width="10" height="10" rx="2" fill="#54342b"/><rect x="678" y="140" width="10" height="10" rx="2" fill="#2b211d"/><rect x="691" y="62" width="10" height="10" rx="2" fill="#c56b4a"/><rect x="691" y="75" width="10" height="10" rx="2" fill="#8a4b38"/><rect x="691" y="88" width="10" height="10" rx="2" fill="#e8b67c"/><rect x="691" y="101" width="10" height="10" rx="2" fill="#e8b67c"/><rect x="691" y="114" width="10" height="10" rx="2" fill="#e8b67c"/><rect x="691" y="127" width="10" height="10" rx="2" fill="#e8b67c"/><rect x="691" y="140" width="10" height="10" rx="2" fill="#e8b67c"/><rect x="704" y="62" width="10" height="10" rx="2" fill="#2b211d"/><rect x="704" y="75" width="10" height="10" rx="2" fill="#2b211d"/><rect x="704" y="88" width="10" height="10" rx="2" fill="#2b211d"/><rect x="704" y="101" width="10" height="10" rx="2" fill="#2b211d"/><text x="28" y="158" fill="#b9a196" font-family="Arial" font-size="11">618 contributions in the last year</text></svg>