<svg xmlns="http://www.w3.org/2000/svg" width="900" height="300" viewBox="0 0 900 300"><rect width="100%" height="100%" rx="14" fill="#17110f"/><text x="28" y="34" fill="#f3d6bc" font-family="Arial" font-size="16" font-weight="700">LANGUAGE DISTRIBUTION</text><text x="28" y="68" fill="#f3d6bc" font-family="Arial" font-size="12">C</text><rect x="150" y="57" width="360" height="14" rx="7" fill="#2b211d"/><rect x="150" y="57" width="95" height="14" rx="7" fill="#e8a8a1"/><text x="530" y="68" fill="#b9a196" font-family="Arial" font-size="11">26.5%</text><text x="28" y="96" fill="#f3d6bc" font-family="Arial" font-size="12">C++</text><rect x="150" y="85" width="360" height="14" rx="7" fill="#2b211d"/><rect x="150" y="85" width="89" height="14" rx="7" fill="#e8a8a1"/><text x="530" y="96" fill="#b9a196" font-family="Arial" font-size="11">24.8%</text><text x="28" y="124" fill="#f3d6bc" font-family="Arial" font-size="12">Makefile</text><rect x="150" y="113" width="360" height="14" rx="7" fill="#2b211d"/><rect x="150" y="113" width="78" height="14" rx="7" fill="#e8a8a1"/><text x="530" y="124" fill="#b9a196" font-family="Arial" font-size="11">21.9%</text><text x="28" y="152" fill="#f3d6bc" font-family="Arial" font-size="12">TypeScript</text><rect x="150" y="141" width="360" height="14" rx="7" fill="#2b211d"/><rect x="150" y="141" width="33" height="14" rx="7" fill="#e8a8a1"/><text x="530" y="152" fill="#b9a196" font-family="Arial" font-size="11">9.3%</text><text x="28" y="180" fill="#f3d6bc" font-family="Arial" font-size="12">MATLAB</text><rect x="150" y="169" width="360" height="14" rx="7" fill="#2b211d"/><rect x="150" y="169" width="29" height="14" rx="7" fill="#e8a8a1"/><text x="530" y="180" fill="#b9a196" font-family="Arial" font-size="11">8.3%</text><text x="28" y="208" fill="#f3d6bc" font-family="Arial" font-size="12">CMake</text><rect x="150" y="197" width="360" height="14" rx="7" fill="#2b211d"/><rect x="150" y="197" width="14" height="14" rx="7" fill="#e8a8a1"/><text x="530" y="208" fill="#b9a196" font-family="Arial" font-size="11">4.1%</text><text x="28" y="236" fill="#f3d6bc" font-family="Arial" font-size="12">Python</text><rect x="150" y="225" width="360" height="14" rx="7" fill="#2b211d"/><rect x="150" y="225" width="9" height="14" rx="7" fill="#e8a8a1"/><text x="530" y="236" fill="#b9a196" font-family="Arial" font-size="11">2.8%</text><text x="28" y="264" fill="#f3d6bc" font-family="Arial" font-size="12">JavaScript</text><rect x="150" y="253" width="360" height="14" rx="7" fill="#2b211d"/><rect x="150" y="253" width="8" height="14" rx="7" fill="#e8a8a1"/><text x="530" y="264" fill="#b9a196" font-family="Arial" font-size="11">2.3%</text></svg>