<svg xmlns="http://www.w3.org/2000/svg" width="900" height="300" viewBox="0 0 900 300"><rect width="100%" height="100%" rx="14" fill="#101513"/><text x="28" y="34" fill="#d1fae5" font-family="Arial" font-size="16" font-weight="700">LANGUAGE DISTRIBUTION</text><text x="28" y="68" fill="#d1fae5" font-family="Arial" font-size="12">Makefile</text><rect x="150" y="57" width="360" height="14" rx="7" fill="#1c2924"/><rect x="150" y="57" width="123" height="14" rx="7" fill="#6ee7b7"/><text x="530" y="68" fill="#9ca3af" font-family="Arial" font-size="11">34.3%</text><text x="28" y="96" fill="#d1fae5" font-family="Arial" font-size="12">C++</text><rect x="150" y="85" width="360" height="14" rx="7" fill="#1c2924"/><rect x="150" y="85" width="114" height="14" rx="7" fill="#6ee7b7"/><text x="530" y="96" fill="#9ca3af" font-family="Arial" font-size="11">31.8%</text><text x="28" y="124" fill="#d1fae5" font-family="Arial" font-size="12">C</text><rect x="150" y="113" width="360" height="14" rx="7" fill="#1c2924"/><rect x="150" y="113" width="42" height="14" rx="7" fill="#6ee7b7"/><text x="530" y="124" fill="#9ca3af" font-family="Arial" font-size="11">11.7%</text><text x="28" y="152" fill="#d1fae5" font-family="Arial" font-size="12">MATLAB</text><rect x="150" y="141" width="360" height="14" rx="7" fill="#1c2924"/><rect x="150" y="141" width="41" height="14" rx="7" fill="#6ee7b7"/><text x="530" y="152" fill="#9ca3af" font-family="Arial" font-size="11">11.4%</text><text x="28" y="180" fill="#d1fae5" font-family="Arial" font-size="12">CMake</text><rect x="150" y="169" width="360" height="14" rx="7" fill="#1c2924"/><rect x="150" y="169" width="22" height="14" rx="7" fill="#6ee7b7"/><text x="530" y="180" fill="#9ca3af" font-family="Arial" font-size="11">6.3%</text><text x="28" y="208" fill="#d1fae5" font-family="Arial" font-size="12">JavaScript</text><rect x="150" y="197" width="360" height="14" rx="7" fill="#1c2924"/><rect x="150" y="197" width="10" height="14" rx="7" fill="#6ee7b7"/><text x="530" y="208" fill="#9ca3af" font-family="Arial" font-size="11">2.9%</text><text x="28" y="236" fill="#d1fae5" font-family="Arial" font-size="12">CSS</text><rect x="150" y="225" width="360" height="14" rx="7" fill="#1c2924"/><rect x="150" y="225" width="3" height="14" rx="7" fill="#6ee7b7"/><text x="530" y="236" fill="#9ca3af" font-family="Arial" font-size="11">0.9%</text><text x="28" y="264" fill="#d1fae5" font-family="Arial" font-size="12">HTML</text><rect x="150" y="253" width="360" height="14" rx="7" fill="#1c2924"/><rect x="150" y="253" width="3" height="14" rx="7" fill="#6ee7b7"/><text x="530" y="264" fill="#9ca3af" font-family="Arial" font-size="11">0.6%</text></svg>